<?xml version="1.0" encoding="UTF-8" standalone="no"?>
<!DOCTYPE svg PUBLIC "-//W3C//DTD SVG 1.1//EN"
 "http://www.w3.org/Graphics/SVG/1.1/DTD/svg11.dtd">
<!-- Generated by graphviz version 2.38.0 (20140413.2041)
 -->
<!-- Title: G Pages: 1 -->
<svg width="960pt" height="124pt"
 viewBox="0.00 0.00 960.16 123.98" xmlns="http://www.w3.org/2000/svg" xmlns:xlink="http://www.w3.org/1999/xlink">
<g id="graph0" class="graph" transform="scale(1 1) rotate(0) translate(7.992 115.992)">
<title>G</title>
<polygon fill="#000000" stroke="none" points="-7.992,7.992 -7.992,-115.992 952.165,-115.992 952.165,7.992 -7.992,7.992"/>
<!-- src/index -->
<g id="node1" class="node"><title>src/index</title>
<ellipse fill="none" stroke="#c6c5fe" cx="478.336" cy="-90" rx="48.1917" ry="18"/>
<text text-anchor="middle" x="478.336" y="-86.3" font-family="Arial" font-size="14.00" fill="#c6c5fe">src/index</text>
</g>
<!-- node_modules/fun&#45;assert/src/index -->
<g id="node2" class="node"><title>node_modules/fun&#45;assert/src/index</title>
<ellipse fill="none" stroke="#cfffac" cx="155.336" cy="-18" rx="155.173" ry="18"/>
<text text-anchor="middle" x="155.336" y="-14.3" font-family="Arial" font-size="14.00" fill="#cfffac">node_modules/fun&#45;assert/src/index</text>
</g>
<!-- src/index&#45;&gt;node_modules/fun&#45;assert/src/index -->
<g id="edge1" class="edge"><title>src/index&#45;&gt;node_modules/fun&#45;assert/src/index</title>
<path fill="none" stroke="#757575" d="M437.755,-80.2053C387.174,-69.2434 299.564,-50.2568 235.302,-36.3301"/>
<polygon fill="#757575" stroke="#757575" points="235.713,-32.8379 225.198,-34.1404 234.23,-39.6791 235.713,-32.8379"/>
</g>
<!-- node_modules/fun&#45;curry/src/index -->
<g id="node3" class="node"><title>node_modules/fun&#45;curry/src/index</title>
<ellipse fill="none" stroke="#cfffac" cx="478.336" cy="-18" rx="150.273" ry="18"/>
<text text-anchor="middle" x="478.336" y="-14.3" font-family="Arial" font-size="14.00" fill="#cfffac">node_modules/fun&#45;curry/src/index</text>
</g>
<!-- src/index&#45;&gt;node_modules/fun&#45;curry/src/index -->
<g id="edge2" class="edge"><title>src/index&#45;&gt;node_modules/fun&#45;curry/src/index</title>
<path fill="none" stroke="#757575" d="M478.336,-71.6966C478.336,-63.9827 478.336,-54.7125 478.336,-46.1124"/>
<polygon fill="#757575" stroke="#757575" points="481.836,-46.1043 478.336,-36.1043 474.836,-46.1044 481.836,-46.1043"/>
</g>
<!-- node_modules/guarded/src/index -->
<g id="node4" class="node"><title>node_modules/guarded/src/index</title>
<ellipse fill="none" stroke="#cfffac" cx="795.336" cy="-18" rx="148.674" ry="18"/>
<text text-anchor="middle" x="795.336" y="-14.3" font-family="Arial" font-size="14.00" fill="#cfffac">node_modules/guarded/src/index</text>
</g>
<!-- src/index&#45;&gt;node_modules/guarded/src/index -->
<g id="edge3" class="edge"><title>src/index&#45;&gt;node_modules/guarded/src/index</title>
<path fill="none" stroke="#757575" d="M518.806,-80.0634C568.635,-69.0603 654.367,-50.1288 717.195,-36.2552"/>
<polygon fill="#757575" stroke="#757575" points="718.063,-39.6479 727.073,-34.0739 716.553,-32.8126 718.063,-39.6479"/>
</g>
</g>
</svg>
